<svg xmlns="http://www.w3.org/2000/svg" xmlns:xlink="http://www.w3.org/1999/xlink" viewBox="0 0 324 278"><defs><linearGradient x1="43.3%" y1="-28.2%" x2="50%" y2="91.1%" id="a"><stop stop-color="#FDC6C6" offset="0%"/><stop stop-color="#FAB2B2" offset="100%"/></linearGradient><linearGradient x1="42.3%" y1="8.7%" x2="50%" y2="71.7%" id="b"><stop stop-color="#FDC6C6" offset="0%"/><stop stop-color="#FAB2B2" offset="100%"/></linearGradient><linearGradient x1="68.7%" y1="-53.1%" x2="68.7%" y2="100%" id="c"><stop stop-color="#7367F0" offset="0%"/><stop stop-color="#8CA5FF" offset="100%"/></linearGradient><linearGradient x1="68.7%" y1="-53.1%" x2="68.7%" y2="100%" id="d"><stop stop-color="#7367F0" offset="0%"/><stop stop-color="#8CA5FF" offset="100%"/></linearGradient><path d="M11 0h24.3c1 0 1.7.8 1.7 1.8v4.6a37.4 37.4 0 0 1 9.3 23.3c0 7.5-2.7 15-8 22.5-.3.5-.8.7-1.3.7H9.3c-.6 0-1-.2-1.4-.7C2.6 44.7 0 37.2 0 29.7A37 37 0 0 1 9 6.8l.3-.4V1.8C9.3.8 10 0 10.9 0Z" id="e"/></defs><g stroke="none" stroke-width="1" fill="none" fill-rule="evenodd"><g transform="translate(-993 -1033) translate(260 1033) translate(733) translate(168 77)"><path fill="#C5C5C5" d="M52.5 99.1 39.7 199.8 46.4 199.7 59.1 100.1z"/><path fill="#C3C3C3" transform="matrix(-1 0 0 1 121.8 0)" d="M63.9 99.1 51.2 199.8 57.9 199.7 70.6 100.1z"/><path fill="#C3C3C3" transform="matrix(-1 0 0 1 199.5 0)" d="M102.8 99.1 90 199.8 96.7 199.7 109.5 100.1z"/><path d="M0 104.4C0 98.6 4.7 94 10.5 94h43.2a11 11 0 0 0 11-10l7-73.8A11 11 0 0 1 82.7 0h29a11 11 0 0 1 11 12l-7.2 92.7a11 11 0 0 1-11 10.2h-94C4.7 115 0 110.2 0 104.4Z" fill="#C5C5C5"/><path d="M111.3 0h.8a11.4 11.4 0 0 1 0 1.7L104.9 94a11 11 0 0 1-11 10.2H0v-.2c0-5.8 4.7-10.5 10.5-10.5h43a11 11 0 0 0 11-10l7-73.6a11 11 0 0 1 11-10h28.8Z" fill="#B2B0B0"/></g><path d="M69.5 98.4s-5.5 13.3-1 16.8 13.4 12.2 13.4 12.2l-28.7-6.2 7.1-24.4 9.2 1.6Z" fill="url(#a)" transform="translate(-993 -1033) translate(260 1033) translate(733) matrix(-1 0 0 1 285 0) translate(39 145.4)"/><path d="M67.8 107.1s-.7 6.3 1.4 8.4c2 2.1 13 10.2 13.9 11.7.8 1.6-.7 3.3-.7 3.3s-11.9 1-17.2-2.3c-3.9-2.3-9.6-6.5-9.6-6.5l-1.6 4.1-4.3-.1s-.5-5.1.5-7.6l6.3-14.9s2 1.8 4.2 2.8a22 22 0 0 1 4.8 3.4l2.3-2.3Z" fill="#323740" transform="translate(-993 -1033) translate(260 1033) translate(733) matrix(-1 0 0 1 285 0) translate(39 145.4)"/><path d="M21.6 0c9.6.5 63.2 12.3 73 14.3 9.7 2 17.9 12.9 10.5 25.5C96.7 53.9 75.2 94 70 103c-2.6 4.5-15.6 2-12.6-5.5 5.8-14 8.4-49.3 23-62 0 0-49 8.4-70.1-1.3C-5.1 27.2-1.7-1 21.6 0Z" fill="#42474F" transform="translate(-993 -1033) translate(260 1033) translate(733) matrix(-1 0 0 1 285 0) translate(39 145.4)"/><g transform="translate(-993 -1033) translate(260 1033) translate(733) matrix(-1 0 0 1 285 0) translate(67 62.5)"><path d="M60.8 20.8S60.7 13 63.4 9c2.7-4 2.8-8.4 5-8.3 2 .2 0 10.2 0 10.2s2.6-1 4.5-2.2c1.8-1.3 7.6-7.6 9-6.4C84 4 80.3 14.7 78.3 16.8 76.4 19 65.5 26 65.5 26L38.8 53.3l-5-13.9 27-18.6Z" fill="#FFE0D1"/><path d="M1.6 18.2c4.5 10.4 12.7 29.4 16 35.1 4.3 7.1 11 10.3 18.8 5 1.4-1 4.2-3.2 8.4-6.8l-7.6-16.8-5 4.1S23.8 17.3 17 4.8C11.2-5.9-5.2 2.5 1.6 18.2Z" fill="#FFB66F"/><path d="M32.3 38.8c1.5 5.1 2.4 7.5 2.8 7.2.3-.3.2-3.3-.4-9.2l-2.4 2Z" fill-opacity=".2" fill="#000"/><path fill="#FFEDC2" d="M35.3 35.7 41.7 57.1 48.5 51.7 39 32.8z"/></g><path d="M20.9 3.5S16.4-1.2 11.3.3 1.5 11.1 3.7 19.8c2.2 8.8.6 10.6-2 16.5C-5.6 52 13.3 64.8 13.3 64.8l20.7-4.4L26.7 22 20.9 3.5Z" fill="#42474F" transform="translate(-993 -1033) translate(260 1033) translate(733) matrix(-1 0 0 1 285 0) translate(27.2) rotate(12 4 65)"/><path d="M13.3 8.4c-12 12.6-1.6 22 .4 24.4 6.8 18.4 1.4 20.6-6.1 26.6l4 4.6 11.6-4.8-.4-51.8-9.5 1Z" fill-opacity=".2" fill="#000" transform="translate(-993 -1033) translate(260 1033) translate(733) matrix(-1 0 0 1 285 0) translate(27.2) rotate(12 4 65)"/><path d="M18.1 59s7.4-1.5 7.6-11.8c.2-10.2-1-13.7-1-13.7l13.8-.3.2 15.6c0 10 7.7 11.2 7.7 11.2s-1.6 8-14.1 8.7C22.5 69.3 18 59 18 59Z" fill="#F9C7B0" transform="translate(-993 -1033) translate(260 1033) translate(733) matrix(-1 0 0 1 285 0) translate(27.2)"/><path d="M2.8 6.8C1 1.1 10.3-2.3 13 1.8c0 0 1.4 3.9-1.4 6.1-3.8 3-8.8-1-8.8-1Z" fill="#FB9934" transform="translate(-993 -1033) translate(260 1033) translate(733) matrix(-1 0 0 1 285 0) translate(27.2) rotate(12 -7.1 115.7)"/><path d="M4.7 22c-6.2-.2-5.2 8.8 1.2 8.8 0 0 3.7 12.8 16.7 12.8 10.4 0 11.1-15 11.2-18l.1-13.5H4.4l.3 10Z" fill="#FFE0D1" transform="translate(-993 -1033) translate(260 1033) translate(733) matrix(-1 0 0 1 285 0) translate(27.2) rotate(12 -7.1 115.7)"/><path d="M7.9 27.6c1-.3 1.3-6.1 1.3-6.1 3.2-.6 3.7-1.4 6.1-5.2C26 18.5 33 19.2 34 26.9c0 0 8-17.8-6-24.1C15.9-2.8 3 2.4.8 12c-1.6 6.9.2 12 .2 12s1.6-2.6 4.2-2C7.7 22.7 7 28 8 27.6Z" fill="#42474F" transform="translate(-993 -1033) translate(260 1033) translate(733) matrix(-1 0 0 1 285 0) translate(27.2) rotate(12 -7.1 115.7)"/><path d="M20.3 34s2.1 3.4 6.3 2.2" stroke="#F77B7B" stroke-width="1.5" stroke-linecap="round" transform="translate(-993 -1033) translate(260 1033) translate(733) matrix(-1 0 0 1 285 0) translate(27.2) rotate(12 -7.1 115.7) rotate(-18 23.4 35.2)"/><path d="M22 38c1 .5 2 .5 2.8 0" stroke="#F49494" stroke-linecap="round" transform="translate(-993 -1033) translate(260 1033) translate(733) matrix(-1 0 0 1 285 0) translate(27.2) rotate(12 -7.1 115.7) rotate(2 23.4 38.2)"/><path d="M5 27c.3-1.4.2-2.6-1.2-3.1" stroke="#F77B7B" stroke-linecap="round" transform="translate(-993 -1033) translate(260 1033) translate(733) matrix(-1 0 0 1 285 0) translate(27.2) rotate(12 -7.1 115.7) rotate(-13 4.5 25.4)"/><path d="M47.6 1.2c.1 0 6 2.6 6.7 3.6 4.5 6.5 12.6 29.4 13 34.4.5 5.7-7.8 14.8-7.9 23.1 0 8.3 3.6 33.3 2.2 35.6-1.4 2.4-10.6 13.5-12.5 13.5-2 0-3.4-5.8-6.3-5.6-2.9 0-9 7.8-11.5 7.7-2.6 0-29.6-17-27.5-22 2-4.8 11.7-16.9 10.7-23.5-1-6.6-8.7-31-11.5-39.4-2.8-8.3-5-14.9.2-18.5C8.4 6.5 25.2 0 25.2 0l15.1 8.4s6.4-7.1 7.3-7.2Z" fill="#FF9F43" transform="translate(-993 -1033) translate(260 1033) translate(733) matrix(-1 0 0 1 285 0) translate(23.2 57.4)"/><path d="M42.2 8.2c4.5 15 10.7 30 13.2 44l-7.2-3.9-6.7 5.1c.5-14.7-2-30.1-3.1-45.2h3.8Z" fill="#FFF6E1" transform="translate(-993 -1033) translate(260 1033) translate(733) matrix(-1 0 0 1 285 0) translate(23.2 57.4)"/><path d="m15.7 19.8-.1 1.2c-2 15.1.3 33.5 4.5 36.3 4.2 2.8 20.8 0 20.8 2.3s-22.9 23-19.1 33c2 5.4 1.3 10.2-2.1 14.5l-1-.7c-7.8-5.3-16-12-15-14.8C6 86.7 15.6 74.6 14.6 68c-1-6.3-8.1-29.1-11.1-38.3l-1-2.9c-1.1-3.4-2-6.5-2.3-9.1l.7-.5c11.2-7.2 16.1-6.3 15 2.6Z" fill-opacity=".2" fill="#000" transform="translate(-993 -1033) translate(260 1033) translate(733) matrix(-1 0 0 1 285 0) translate(23.2 57.4)"/><path d="m22.4 1 2.8-1 15.5 8s-3 7.4-8 3.7c-4.5-3.1-2.6-5.9-6-7.3C23.1 3 22.3 1 22.3 1Z" fill="#FFF6E1" transform="translate(-993 -1033) translate(260 1033) translate(733) matrix(-1 0 0 1 285 0) translate(23.2 57.4)"/><path d="M40.7 8c1 2.5 3.4 4 4.5 3.5 2-.7 1.1-3.7 1.9-5.2.5-1 .9-1.2 1.4-2.2.4-1 .4-2 .3-2.4L47.3 1a71.9 71.9 0 0 0-6.6 7Z" fill="#FFF6E1" transform="translate(-993 -1033) translate(260 1033) translate(733) matrix(-1 0 0 1 285 0) translate(23.2 57.4)"/><g transform="translate(-993 -1033) translate(260 1033) translate(733) matrix(-1 0 0 1 285 0) translate(0 66.3)"><path d="M46.9 39.1s9-8 11.8-9c2.8-.9 19.1-2 19 0-.1 2.3-8.9 2.2-9.8 3.3-.9 1.1-1 8.7-4.5 9.6a231 231 0 0 1-13.7 2.3L25.2 60l-1-13.5L46.8 39Z" fill="#FFE0D1"/><path d="M22.7 5C13.1 18.7 4.9 39.2 1.8 47.2c-3.1 8 0 20.1 13.8 17.8 1.6-.3 4.1-1 7.6-2l3.3-18.6-4.3 1.8s13.7-24.3 17-30.8C45 4.4 31.3-6.8 22.8 5.1Z" fill="#FFB66F"/><path d="M22.2 46c-4.6 2.4-6.6 3-6 2a40 40 0 0 1 8.7-6.6L22.2 46Z" fill-opacity=".2" fill="#000"/><path fill="#FFEDC2" d="M22.9 45.2 20.6 65.3 29.6 62.4 28.3 42.8z"/></g><g transform="translate(-993 -1033) translate(260 1033) translate(733) matrix(-1 0 0 1 285 0) translate(22.1 141.1)"><path d="M119.8 103s-.2 13.2 10.7 18.1c10.8 5 18.5 4.6 17.5 8.4-1 3.8-29.1 3.7-31.8.7-2.2-2.5-7.1-26-8.4-24.3l12-2.8Z" fill="url(#b)"/><path d="M109.7 113.4s2.3 5.6 2.5 9a58 58 0 0 0 5.3 13l4.1.5.4-3.5s6 2.5 9.7 3c3.7.3 16.4-1.2 19-3.3 2.5-2.1 1.2-5-6-6.9-7.4-1.8-18.8-7-21-10.9l-2.1-3.7v6.4s-1.9-3.4-4-3.8c-2.3-.5-8 .2-8 .2Z" fill="#323740"/><path d="M9.4.2c-12.2 18.3-11 31.5 3.5 39.6C31.5 50.3 89 38 89 38s-1 8.2 0 15.5a228 228 0 0 0 18 54.8c3.6 5.5 14.9 1.3 15.1-3.2.2-4.6-8.5-63.3-9.8-74.5-1.3-11.2-5.5-12.8-17.6-15.8-2.8-.7-35.8-9-38.8-8.7A104 104 0 0 1 9.4.1Z" fill="#42474F"/><path d="M22.6 36.8c18.8 2 68.7-2.3 70.7-.3 1.9 1.9 1.6 34.7 5.9 53.6-4.3-11.4-8.8-26-10.3-36.6-1-7.3 0-15.5 0-15.5l-2 .4c-10.1 2-57.2 10.5-74 1.4C3.1 34.5-.7 26.3 1.6 15.2c2.6 13.1 9.7 20.3 21 21.6Z" fill-opacity=".2" fill="#FFF" opacity=".4"/><ellipse fill-opacity=".2" fill="#FFF" transform="rotate(13 120.2 32.1)" cx="120.2" cy="32.1" rx="3.2" ry="5.8"/><ellipse fill-opacity=".2" fill="#FFF" transform="rotate(-16 105.5 28.4)" cx="105.5" cy="28.4" rx="4.2" ry="6.3"/></g><g transform="translate(-993 -1033) translate(260 1033) translate(733) rotate(-28 180 -181.8)"><path d="m3.8 2.1 28 11.3c1 .4 1.5 1.2 1.6 2.2l1 39.2a2.5 2.5 0 0 1-3.2 2.4L2.4 47.7c-1-.3-1.7-1.3-1.7-2.3l-.2-41a2.5 2.5 0 0 1 3.3-2.3Z" fill="#7596FF" fill-rule="nonzero"/><path d="m5 2.6 28 9.7c1 .3 1.6 1.3 1.6 2.3v39.5a2.5 2.5 0 0 1-3.3 2.4l-28-9.7c-1-.3-1.6-1.3-1.6-2.3V4.9A2.5 2.5 0 0 1 5 2.6Z" fill="url(#c)"/><path fill="#FFF" fill-rule="nonzero" d="M3.3 4.4 33 14.2 33 54.7 3.7 44.4z"/><path d="m13.4 3.2 11.5 4.2c.6.3 1 .8 1 1.5l.2 4.3a.8.8 0 0 1-1 .8L13.5 9.8c-.6-.3-1-.8-1-1.5L12.2 4a.8.8 0 0 1 1.1-.8Z" fill="#7367F0" fill-rule="nonzero"/><path d="M22.1 20.2a.8.8 0 0 1 .1 1.7L8.8 17.5a.8.8 0 0 1 0-1.7l13.2 4.4ZM22.1 28.7a.8.8 0 0 1 .1 1.7L8.8 25.9a.8.8 0 0 1 0-1.6l13.2 4.4ZM22.1 37.1a.8.8 0 0 1 .1 1.7L8.8 34.4a.8.8 0 0 1 0-1.7L22.1 37Z" fill="#A7C3FF"/></g><g transform="translate(-993 -1033) translate(260 1033) translate(733) translate(0 137) translate(12)"><path fill="#C5C5C5" d="M96.6 5.3 117.9 5.3 117.9 140.3 96.6 140.3z"/><path fill="#DBDBDB" d="M96.6 0 109.4 0 109.4 140.3 96.6 140.3z"/><path fill="#C5C5C5" d="M0 5.3 105.1 5.3 105.1 45.8 21.2 45.8 21.2 140.3 0 140.3z"/><path fill="#DBDBDB" d="M0 5.3 12.7 5.3 12.7 140.3 0 140.3z"/></g><g transform="translate(-993 -1033) translate(260 1033) translate(733) translate(0 137)"><path fill="#C5C5C5" d="M274.9 5.3 296.2 5.3 296.2 140.3 274.9 140.3z"/><path fill="#C5C5C5" d="M178.3 5.3 283.4 5.3 283.4 55.4 199.5 55.4 199.5 140.3 178.3 140.3z"/><path fill="#DBDBDB" d="M29 0 190.9 0 190.9 55.3 29 55.3z"/><path fill="#C3C3C3" d="M175.1 5.3 187.8 5.3 187.8 55.3 175.1 55.3z"/><path fill="#DBDBDB" d="M178.3 5.3 191 5.3 191 140.3 178.3 140.3z"/><path d="M190.5 0H300a8 8 0 0 1 0 16H190.5a8 8 0 1 1 0-16Z" fill="#C5C5C5"/><path fill="#C3C3C3" d="M16.4 3.2 178.3 3.2 178.3 19.1 16.4 19.1z"/><path d="M8.6 0h185a8 8 0 0 1 0 16H8.7a8 8 0 1 1 0-16Z" fill="#DBDBDB"/></g><path d="M7.3 2H1.9C.9 2 0 2.6 0 3.6V6c0 2.2 2 4.1 4.5 4.1h2.8c.4 0 .8-.3.8-.7 0-.5-.4-.8-.8-.8H4.5c-1.6 0-2.9-1.2-2.9-2.6V3.7c0-.2.1-.3.3-.3h5.4c.4 0 .8-.3.8-.7 0-.5-.4-.8-.8-.8Z" fill="#8C81FF" transform="translate(-993 -1033) translate(260 1033) translate(733) matrix(-1 0 0 1 224 121)"/><path d="M25.2 0c1.2 0 2.1.9 2.1 2v5c0 3.6-2.9 6.6-6.7 7v1h-9.4v-1a7.2 7.2 0 0 1-6.5-7V2c0-1.1 1-2 2.2-2h18.3Z" fill="#7367F0" transform="translate(-993 -1033) translate(260 1033) translate(733) matrix(-1 0 0 1 224 121)"/><path d="M4.8 14h21.6c.3 0 .5.2.5.5s-.2.5-.5.5l-8 .5h-5.6l-8-.5a.5.5 0 0 1-.5-.5c0-.3.2-.5.5-.5Z" fill="#8C81FF" transform="translate(-993 -1033) translate(260 1033) translate(733) matrix(-1 0 0 1 224 121)"/><g transform="translate(-993 -1033) translate(260 1033) translate(733) translate(70 90)"><path d="M7 43.7h102.5a1.4 1.4 0 1 1 0 2.9H7a1.4 1.4 0 1 1 0-3Z" fill="#8C81FF"/><path d="M76.4 43.7h33.1a1.4 1.4 0 1 1 0 2.9h-33a1.4 1.4 0 1 1 0-3ZM4.1 0h64.3c1.8 0 3.4 1.3 3.6 3.1l4.7 36.6a3.6 3.6 0 0 1-3.5 4H8.8a3.6 3.6 0 0 1-3.5-3L.5 4A3.6 3.6 0 0 1 4.1 0Z" fill="#7367F0"/><path d="M4.1 0h62c1.9 0 3.4 1.3 3.6 3.1l4.8 36.6a3.6 3.6 0 0 1-3.6 4h-62a3.6 3.6 0 0 1-3.6-3L.5 4A3.6 3.6 0 0 1 4.1 0Z" fill="url(#d)"/><ellipse fill="#FFF" transform="rotate(-37 36.3 22.6)" cx="36.3" cy="22.6" rx="4.5" ry="4.9"/></g><path d="M33 81.2A828.9 828.9 0 0 0 57 20C40.2 35.9 27 55.2 29 81h4Z" fill="#57E295" transform="translate(-993 -1033) translate(260 1033) translate(733) translate(258 146)"/><path d="M28.3 83.2C26.3 49.4 27.1 18 44.5 0a398.1 398.1 0 0 1-12.6 83.2h-3.6Z" fill="#28C76F" transform="translate(-993 -1033) translate(260 1033) translate(733) translate(258 146)"/><path d="M27.5 79.7C17.8 56.1 8.1 49.3 0 25c26.4 13.7 28 25 33.2 54.7h-5.7Z" fill="#57E295" transform="translate(-993 -1033) translate(260 1033) translate(733) translate(258 146)"/><path d="M22.3 79.7 4.9 56.1c8.4 2.4 22.4 6.2 22.4 23.6h-5Z" fill="#28C76F" transform="translate(-993 -1033) translate(260 1033) translate(733) translate(258 146)"/><path d="M38.6 79.7h5.8c3.7-7.7 8.9-13 21.4-6.6-8.2-12.6-25.1-16.4-27.2 6.6Z" fill="#57E295" transform="translate(-993 -1033) translate(260 1033) translate(733) translate(258 146)"/><path d="M33.2 79.7h4.9c8.8-12.7 12.6-18.2 21.8-29-12 4.5-24.5 10.8-26.7 29Z" fill="#28C76F" transform="translate(-993 -1033) translate(260 1033) translate(733) translate(258 146)"/><g transform="translate(-993 -1033) translate(260 1033) translate(733) translate(258 146) translate(10.2 77.8)"><mask id="f" fill="#fff"><use xlink:href="#e"/></mask><use fill="#7367F0" xlink:href="#e"/><path d="M-5.9-1.4H16C5.5 23 26.2 37.3 16 61.6H-6v-63Z" fill="#857AF9" mask="url(#f)"/></g></g></svg>