<svg xmlns="http://www.w3.org/2000/svg" viewBox="0 0 500 500"><g id="freepik--Floor--inject-94"><ellipse id="freepik--floor--inject-94" cx="250" cy="344.11" rx="234.7" ry="139.61" style="fill:#f5f5f5"></ellipse></g><g id="freepik--Shadows--inject-94"><path id="freepik--Shadow--inject-94" d="M429.48,364.49l44.73-25.78a1.15,1.15,0,0,0,0-2.18L363.65,272.46a4.15,4.15,0,0,0-3.76,0l-44.74,25.78a1.15,1.15,0,0,0,0,2.18l110.56,64.07A4.17,4.17,0,0,0,429.48,364.49Z" style="fill:#e6e6e6"></path><path id="freepik--shadow--inject-94" d="M358.21,338.9c-38.62-22.3-111-16.66-161.68,12.6l-20.92,12.08c-50.67,29.25-60.45,71.05-21.82,93.35s111,16.66,161.69-12.6l20.91-12.07C387.06,403,396.84,361.21,358.21,338.9Z" style="fill:#e0e0e0"></path><path id="freepik--shadow--inject-94" d="M173.91,319.53l-70.63-40.74a12.25,12.25,0,0,0-11.12,0L31.57,313.93c-3.07,1.79-3.07,4.67,0,6.44l70.62,40.75a12.25,12.25,0,0,0,11.12,0L173.92,326C177,324.19,177,321.31,173.91,319.53Z" style="fill:#e0e0e0"></path></g><g id="freepik--Furniture--inject-94"><g id="freepik--Drawer--inject-94"><polygon points="420.01 339.55 423.85 358.61 427.59 360.77 431.29 358.63 435.17 339.55 427.59 335.18 420.01 339.55" style="fill:#e0e0e0"></polygon><polygon points="420.01 339.55 423.85 358.61 427.59 360.77 431.29 358.63 435.17 339.55 427.59 335.18 420.01 339.55" style="opacity:0.05"></polygon><polygon points="427.59 360.77 427.59 343.93 420.01 339.55 423.85 358.61 427.59 360.77" style="fill:#ebebeb"></polygon><polygon points="420.01 339.55 422.49 351.86 427.59 354.81 432.66 351.88 435.17 339.55 427.59 335.18 420.01 339.55" style="opacity:0.05"></polygon><polygon points="453.33 320.32 457.17 339.38 460.91 341.54 464.61 339.4 468.48 320.32 460.91 315.94 453.33 320.32" style="fill:#e0e0e0"></polygon><polygon points="453.33 320.32 457.17 339.38 460.91 341.54 464.61 339.4 468.48 320.32 460.91 315.94 453.33 320.32" style="opacity:0.05"></polygon><polygon points="460.91 341.54 460.91 324.69 453.33 320.32 457.17 339.38 460.91 341.54" style="fill:#ebebeb"></polygon><polygon points="453.33 320.32 455.81 332.63 460.91 335.57 465.98 332.64 468.48 320.32 460.91 315.94 453.33 320.32" style="opacity:0.05"></polygon><polygon points="321.46 282.65 325.3 301.71 329.03 303.87 332.74 301.73 336.61 282.65 329.03 278.28 321.46 282.65" style="opacity:0.05"></polygon><polygon points="329.03 303.87 329.03 287.02 321.46 282.65 325.3 301.71 329.03 303.87" style="fill:#ebebeb"></polygon><polygon points="321.46 282.65 323.94 294.96 329.03 297.9 334.11 294.97 336.61 282.65 329.03 278.28 321.46 282.65" style="opacity:0.05"></polygon><g id="freepik--Cabinet--inject-94"><g id="freepik--cabinet--inject-94"><polygon points="427.59 351.73 468.88 327.89 468.88 238.53 427.59 262.36 427.59 351.73" style="fill:#e0e0e0"></polygon><polygon points="427.59 262.36 319.31 199.85 319.31 289.21 427.59 351.73 427.59 262.36" style="fill:#ebebeb"></polygon><polygon points="319.31 199.85 427.59 262.36 468.88 238.53 360.6 176.01 319.31 199.85" style="fill:#f5f5f5"></polygon><polygon points="421.69 306.63 325.21 250.93 325.21 283.73 324.12 284.35 420.61 340.06 421.69 339.43 421.69 306.63" style="fill:#e0e0e0"></polygon><polygon points="420.61 307.26 324.12 251.56 324.12 284.35 420.61 340.06 420.61 307.26" style="fill:#f5f5f5"></polygon><path d="M374.22,286.68l-8-4.64c-1.05-.6-1.89-.32-1.89.62a3.75,3.75,0,0,0,1.89,2.79l8,4.63c1,.6,1.89.33,1.89-.61A3.78,3.78,0,0,0,374.22,286.68Z" style="fill:#e0e0e0"></path><polygon points="421.69 267.03 325.21 211.33 325.21 244.12 324.13 244.75 420.61 300.46 421.69 299.83 421.69 267.03" style="fill:#e0e0e0"></polygon><polygon points="420.61 267.66 324.12 211.95 324.13 244.75 420.61 300.46 420.61 267.66" style="fill:#f5f5f5"></polygon><path d="M374.22,247.08l-8-4.64c-1-.6-1.89-.32-1.89.62a3.78,3.78,0,0,0,1.89,2.79l8,4.63c1,.6,1.89.33,1.89-.61A3.78,3.78,0,0,0,374.22,247.08Z" style="fill:#e0e0e0"></path></g></g><g id="freepik--Pot--inject-94"><path d="M346.77,187.52c-5,2.89-5,7.57,0,10.46s13.12,2.89,18.13,0,5-7.57,0-10.46S351.78,184.63,346.77,187.52Z" style="fill:#e0e0e0"></path><path d="M363.81,193.4c4.36-4.45,6.92-15.56,2.66-19.08H344.84c-4.25,3.52-1.69,14.62,2.67,19.07l.11.13.15.14c.13.12.26.24.4.35l.1.08.33.25a4.48,4.48,0,0,0,.57.36,14.34,14.34,0,0,0,13,0h0a6,6,0,0,0,.57-.36,3.4,3.4,0,0,0,.3-.23l.13-.1c.14-.11.26-.23.38-.34l.18-.17Z" style="fill:#ebebeb"></path><path d="M346.72,172.9c-4.94,2.84-4.94,7.47,0,10.32s12.94,2.85,17.87,0,4.94-7.48,0-10.32S351.66,170.05,346.72,172.9Z" style="fill:#fafafa"></path><path d="M350.22,174.92c-3,1.73-3,4.54,0,6.27a12,12,0,0,0,10.88,0c3-1.73,3-4.54,0-6.27A12,12,0,0,0,350.22,174.92Z" style="fill:#f5f5f5"></path><path d="M361.09,177.9a12,12,0,0,0-10.87,0,4.94,4.94,0,0,0-1.8,1.65,5,5,0,0,0,1.8,1.64,12,12,0,0,0,10.87,0,4.92,4.92,0,0,0,1.8-1.64A4.86,4.86,0,0,0,361.09,177.9Z" style="fill:#ebebeb"></path><path d="M350.88,179.55a25,25,0,0,1-3.93-5.23c-1.82-3.22-2.15-7.52-1.21-8S350.5,170,350.5,170a23.34,23.34,0,0,1-.4-5.48c.16-2.86.85-5.46,1.67-6s2.65,3.09,3.44,5.7,1.26,4.77,1.26,4.77a39.42,39.42,0,0,1,1.41-6c.95-2.71,1.81-3.33,2.48-3.06s1.12,1.53,1.31,5.15a35.63,35.63,0,0,1-.16,5.18s1.35-1.48,2.85-2.92,2.34-1.8,2.81-1.5.6,2.76-1.94,7.36a25.92,25.92,0,0,1-4.81,6.33S356.9,181.82,350.88,179.55Z" style="fill:#e0e0e0"></path></g><g id="freepik--Picture--inject-94"><g id="freepik--Frame--inject-94"><polygon points="422.12 243.2 420.51 243.98 390.73 226.79 392.34 226.01 422.12 243.2" style="fill:#fafafa"></polygon><polygon points="392.34 226.01 420.67 242.36 424.79 199.99 396.46 183.65 392.34 226.01" style="fill:#fff"></polygon><path d="M387.7,228.2,423,248.55l4.86-50-35.26-20.36ZM395,182.8,424.79,200l-4.28,44-29.78-17.19Z" style="fill:#f0f0f0"></path><polygon points="390.73 226.79 392.34 226.01 396.46 183.65 395.01 182.8 390.73 226.79" style="fill:#e0e0e0"></polygon><polygon points="392.56 178.22 394.19 177.47 429.45 197.82 427.82 198.58 392.56 178.22" style="fill:#fafafa"></polygon><polygon points="429.45 197.82 427.82 198.58 422.96 248.55 424.59 247.8 429.45 197.82" style="fill:#e0e0e0"></polygon></g><g id="freepik--Land--inject-94"><polygon points="393.59 225.21 419.7 240.28 420.4 233.15 415.54 212.18 410.91 219.33 411.87 225.36 404.15 203.11 394.28 218.07 393.59 225.21" style="fill:#f0f0f0"></polygon><path d="M415.94,203.35a3.67,3.67,0,0,1,1.73,3.22c-.12,1.17-1.07,1.62-2.14,1a3.69,3.69,0,0,1-1.73-3.23C413.92,203.18,414.87,202.73,415.94,203.35Z" style="fill:#f0f0f0"></path></g></g></g></g><g id="freepik--Carpet--inject-94"><g id="freepik--carpet--inject-94"><path d="M375.67,371.55c0,18.18-16,38.23-42.67,53.66l-20.54,11.86c-27.79,16-63.07,25.24-96.83,25.24-23.4,0-43.47-4.46-58-12.87-13.9-8-21.25-18.84-21.25-31.26,0-18.18,16-38.23,42.67-53.65l20.55-11.87c27.78-16,63.08-25.24,96.84-25.24,23.38,0,43.45,4.46,58,12.88C368.32,348.32,375.67,359.13,375.67,371.55Z" style="fill:#7367F0"></path><path d="M215.62,462.31c-23.39,0-43.46-4.46-58-12.87-13.9-8-21.24-18.84-21.24-31.26,0-18.17,15.95-38.23,42.67-53.66l20.54-11.85c27.78-16,63.07-25.24,96.83-25.24,23.39,0,43.46,4.45,58,12.86,13.9,8,21.25,18.84,21.25,31.26,0,18.17-16,38.23-42.67,53.66l-20.54,11.86c-27.78,16-63.08,25.24-96.83,25.24Z" style="fill:#7367F0"></path><path d="M375.67,371.55c0,18.18-16,38.23-42.67,53.66l-20.54,11.86c-27.79,16-63.07,25.24-96.83,25.24-23.4,0-43.47-4.46-58-12.87-13.9-8-21.25-18.84-21.25-31.26,0-18.18,16-38.23,42.67-53.65l20.55-11.87c27.78-16,63.08-25.24,96.84-25.24,23.38,0,43.45,4.46,58,12.88C368.32,348.32,375.67,359.13,375.67,371.55Z" style="fill:#fff;opacity:0.7000000000000001"></path><path d="M224.81,447.62h0c-18.19,0-33.81-3.47-45.17-10-10.95-6.32-16.74-14.87-16.74-24.71,0-14.28,12.45-30,33.3-42l15.87-9.16c21.56-12.45,48.95-19.59,75.14-19.59,18.19,0,33.81,3.47,45.17,10,10.95,6.32,16.74,14.87,16.74,24.71,0,14.28-12.44,30-33.29,42L300,428C278.39,440.48,251,447.62,224.81,447.62Zm0-1.3h0c26,0,53.12-7.07,74.49-19.41l15.87-9.16c20.44-11.8,32.64-27.09,32.64-40.9,0-9.35-5.56-17.51-16.09-23.59-11.17-6.44-26.56-9.85-44.52-9.85-26,0-53.12,7.08-74.49,19.41L196.84,372c-20.45,11.81-32.65,27.09-32.65,40.9,0,9.35,5.56,17.51,16.09,23.59C191.45,442.91,206.84,446.32,224.8,446.32Z" style="fill:#fff"></path><path d="M230.79,437c-14.6,0-27.14-2.78-36.24-8-8.68-5-13.26-11.76-13.26-19.52,0-11.34,10-23.87,26.64-33.5l12.82-7.4c17.35-10,39.39-15.76,60.46-15.76,14.61,0,27.14,2.78,36.24,8,8.68,5,13.27,11.76,13.27,19.52,0,11.35-10,23.87-26.65,33.5l-12.82,7.4c-17.35,10-39.38,15.76-60.46,15.76Z" style="fill:#7367F0;opacity:0.30000000000000004"></path><path d="M236.78,427c-11.14,0-20.69-2.12-27.63-6.12C202.53,417,199,411.88,199,406c0-8.65,7.6-18.19,20.32-25.54l9.77-5.64c13.23-7.64,30-12,46.11-12,11.13,0,20.68,2.12,27.63,6.13,6.61,3.82,10.11,9,10.11,14.88,0,8.65-7.59,18.2-20.31,25.54L282.88,415c-13.23,7.63-30,12-46.1,12Z" style="fill:#fff;opacity:0.4"></path><path d="M356.37,336.92c-37.93-21.9-109-16.36-158.77,12.36l-20.55,11.86c-49.75,28.73-59.35,69.78-21.42,91.68s109,16.36,158.78-12.37L335,428.59C384.7,399.86,394.3,358.82,356.37,336.92ZM333,425.21l-20.54,11.86c-27.79,16-63.07,25.24-96.83,25.24-23.4,0-43.47-4.46-58-12.87-13.9-8-21.25-18.84-21.25-31.26,0-18.18,16-38.23,42.67-53.65l20.55-11.87c27.78-16,63.08-25.24,96.84-25.24,23.38,0,43.45,4.46,58,12.88,13.9,8,21.25,18.83,21.25,31.25C375.67,389.73,359.71,409.78,333,425.21Z" style="fill:#7367F0"></path><path d="M356.37,336.92c-37.93-21.9-109-16.36-158.77,12.36l-20.55,11.86c-49.75,28.73-59.35,69.78-21.42,91.68s109,16.36,158.78-12.37L335,428.59C384.7,399.86,394.3,358.82,356.37,336.92ZM333,425.21l-20.54,11.86c-27.79,16-63.07,25.24-96.83,25.24-23.4,0-43.47-4.46-58-12.87-13.9-8-21.25-18.84-21.25-31.26,0-18.18,16-38.23,42.67-53.65l20.55-11.87c27.78-16,63.08-25.24,96.84-25.24,23.38,0,43.45,4.46,58,12.88,13.9,8,21.25,18.83,21.25,31.25C375.67,389.73,359.71,409.78,333,425.21Z" style="fill:#fff;opacity:0.30000000000000004"></path></g></g><g id="freepik--side-table--inject-94"><g id="freepik--side-table--inject-94"><g id="freepik--side-table--inject-94"><polygon points="161.68 326.97 151.09 320.85 161.68 317.79 161.68 326.97" style="fill:#7367F0"></polygon><polygon points="161.68 326.97 151.09 320.85 161.68 317.79 161.68 326.97" style="fill:#fff;opacity:0.6000000000000001"></polygon><polygon points="161.68 326.97 151.09 320.85 161.68 317.79 161.68 326.97" style="opacity:0.05"></polygon><polygon points="161.68 326.97 166.98 323.91 166.98 314.73 161.68 317.79 161.68 326.97" style="fill:#7367F0"></polygon><polygon points="161.68 326.97 166.98 323.91 166.98 314.73 161.68 317.79 161.68 326.97" style="fill:#fff;opacity:0.75"></polygon><polygon points="108.6 348.44 108.6 358.2 45.87 321.92 45.87 312.17 108.6 348.44" style="fill:#7367F0"></polygon><polygon points="108.6 348.44 108.6 358.2 45.87 321.92 45.87 312.17 108.6 348.44" style="fill:#fff;opacity:0.6000000000000001"></polygon><polygon points="108.6 348.44 108.6 358.2 45.87 321.92 45.87 312.17 108.6 348.44" style="opacity:0.1"></polygon><polygon points="108.6 358.2 113.9 355.14 113.9 345.38 108.6 348.44 108.6 358.2" style="fill:#7367F0"></polygon><polygon points="108.6 358.2 113.9 355.14 113.9 345.38 108.6 348.44 108.6 358.2" style="fill:#fff;opacity:0.75"></polygon><polygon points="40.57 235.69 103.3 271.96 103.3 351.5 40.57 315.23 40.57 235.69" style="fill:#7367F0"></polygon><polygon points="40.57 235.69 103.3 271.96 103.3 351.5 40.57 315.23 40.57 235.69" style="fill:#fff;opacity:0.6000000000000001"></polygon><polygon points="103.3 271.96 172.28 232.13 172.28 311.68 103.3 351.5 103.3 271.96" style="fill:#7367F0"></polygon><polygon points="103.3 271.96 172.28 232.13 172.28 311.68 103.3 351.5 103.3 271.96" style="fill:#fff;opacity:0.75"></polygon><polygon points="172.28 232.13 109.55 195.86 40.57 235.69 103.3 271.96 172.28 232.13" style="fill:#7367F0"></polygon><polygon points="172.28 232.13 109.55 195.86 40.57 235.69 103.3 271.96 172.28 232.13" style="fill:#fff;opacity:0.85"></polygon><polygon points="108.6 299.49 166.98 265.79 166.98 308.62 108.6 342.32 108.6 299.49" style="fill:#7367F0"></polygon><polygon points="108.6 299.49 166.98 265.79 166.98 308.62 108.6 342.32 108.6 299.49" style="fill:#fff;opacity:0.6000000000000001"></polygon><polygon points="166.98 308.62 130.14 287.06 108.6 299.49 108.6 342.32 166.98 308.62" style="opacity:0.1"></polygon><polygon points="166.98 308.62 130.14 287.06 166.98 265.79 166.98 308.62" style="opacity:0.05"></polygon><polygon points="108.6 275.02 166.98 241.31 166.98 259.67 108.6 293.38 108.6 275.02" style="fill:#7367F0"></polygon><polygon points="108.6 275.02 166.98 241.31 166.98 259.67 108.6 293.38 108.6 275.02" style="fill:#fff;opacity:0.85"></polygon><path d="M126.69,268.44c0,.84,2.53.07,5.65-1.73l9.9-5.72c3.12-1.8,5.65-3.94,5.65-4.79v-1.53l-21.2,12.24Z" style="fill:#455a64"></path></g><g id="freepik--picture--inject-94"><g id="freepik--frame--inject-94"><polygon points="71.31 239.95 72.86 240.7 101.64 224.08 100.08 223.34 71.31 239.95" style="fill:#7367F0"></polygon><polygon points="71.31 239.95 72.86 240.7 101.64 224.08 100.08 223.34 71.31 239.95" style="opacity:0.2"></polygon><polygon points="100.08 223.34 72.71 239.14 68.73 198.19 96.1 182.4 100.08 223.34" style="fill:#7367F0"></polygon><g style="opacity:0.8"><polygon points="100.08 223.34 72.71 239.14 68.73 198.19 96.1 182.4 100.08 223.34" style="fill:#fff"></polygon></g><path d="M99.87,177.16,65.8,196.83l4.7,48.29,34.06-19.67Zm1.77,46.92L72.86,240.7l-4.13-42.51L97.5,181.58Z" style="fill:#7367F0"></path><path d="M99.87,177.16,65.8,196.83l4.7,48.29,34.06-19.67Zm1.77,46.92L72.86,240.7l-4.13-42.51L97.5,181.58Z" style="fill:#7367F0"></path><polygon points="101.64 224.08 100.08 223.34 96.1 182.4 97.5 181.58 101.64 224.08" style="fill:#7367F0"></polygon><polygon points="101.64 224.08 100.08 223.34 96.1 182.4 97.5 181.58 101.64 224.08" style="opacity:0.35000000000000003"></polygon><polygon points="99.87 177.16 98.29 176.43 64.22 196.1 65.8 196.83 99.87 177.16" style="fill:#7367F0"></polygon><polygon points="99.87 177.16 98.29 176.43 64.22 196.1 65.8 196.83 99.87 177.16" style="fill:#fff;opacity:0.6000000000000001"></polygon><polygon points="64.22 196.1 65.8 196.83 70.5 245.12 68.92 244.39 64.22 196.1" style="fill:#7367F0"></polygon><polygon points="64.22 196.1 65.8 196.83 70.5 245.12 68.92 244.39 64.22 196.1" style="opacity:0.35000000000000003"></polygon></g><g id="freepik--land--inject-94"><polygon points="98.88 222.56 73.64 237.13 72.97 230.23 77.67 209.97 82.14 216.88 81.21 222.71 88.67 201.21 98.21 215.66 98.88 222.56" style="fill:#7367F0"></polygon><path d="M77.28,201.43a3.56,3.56,0,0,0-1.67,3.12c.11,1.13,1,1.56,2.06,1a3.52,3.52,0,0,0,1.67-3.11C79.23,201.27,78.31,200.84,77.28,201.43Z" style="fill:#7367F0"></path></g></g><g id="freepik--pot--inject-94"><path id="freepik--shadow--inject-94" d="M124.89,228.82c5,2.87,5,7.52,0,10.39s-13,2.87-18,0-5-7.52,0-10.39S119.92,226,124.89,228.82Z" style="opacity:0.05"></path><path d="M107.81,236.06c-4.33-4.42-6.87-15.44-2.65-18.94h21.47c4.22,3.5,1.68,14.52-2.64,18.93l-.12.13-.15.14a4.4,4.4,0,0,1-.39.35l-.11.08-.32.25a5.72,5.72,0,0,1-.56.35,14.22,14.22,0,0,1-12.89,0h0a3.79,3.79,0,0,1-.56-.36l-.31-.22-.12-.11c-.14-.11-.26-.22-.38-.33l-.17-.17Z" style="fill:#f5f5f5"></path><path d="M124.76,215.44c4.9,2.83,4.9,7.42,0,10.24s-12.84,2.83-17.74,0-4.89-7.41,0-10.24S119.87,212.61,124.76,215.44Z" style="fill:#fff"></path><path d="M121.29,217.45c3,1.72,3,4.51,0,6.23a11.93,11.93,0,0,1-10.79,0c-3-1.72-3-4.51,0-6.23A11.93,11.93,0,0,1,121.29,217.45Z" style="fill:#ebebeb"></path><path d="M110.5,220.4a11.93,11.93,0,0,1,10.79,0,5,5,0,0,1,1.79,1.64,5,5,0,0,1-1.79,1.64,11.93,11.93,0,0,1-10.79,0,5,5,0,0,1-1.79-1.64A5,5,0,0,1,110.5,220.4Z" style="fill:#e0e0e0"></path><path d="M120.63,222a24.6,24.6,0,0,0,3.91-5.19c1.8-3.19,2.13-7.46,1.2-8S121,212.6,121,212.6a23.32,23.32,0,0,0,.39-5.44c-.15-2.84-.85-5.42-1.66-5.94s-2.63,3.06-3.41,5.65-1.25,4.73-1.25,4.73a39.85,39.85,0,0,0-1.4-6c-.94-2.69-1.8-3.3-2.47-3s-1.1,1.53-1.3,5.12a36.58,36.58,0,0,0,.16,5.13s-1.33-1.47-2.82-2.9-2.33-1.78-2.79-1.48-.6,2.74,1.93,7.31a25.55,25.55,0,0,0,4.76,6.27S114.66,224.3,120.63,222Z" style="fill:#7367F0"></path><path d="M120.63,222a24.6,24.6,0,0,0,3.91-5.19c1.8-3.19,2.13-7.46,1.2-8S121,212.6,121,212.6a23.32,23.32,0,0,0,.39-5.44c-.15-2.84-.85-5.42-1.66-5.94s-2.63,3.06-3.41,5.65-1.25,4.73-1.25,4.73a39.85,39.85,0,0,0-1.4-6c-.94-2.69-1.8-3.3-2.47-3s-1.1,1.53-1.3,5.12a36.58,36.58,0,0,0,.16,5.13s-1.33-1.47-2.82-2.9-2.33-1.78-2.79-1.48-.6,2.74,1.93,7.31a25.55,25.55,0,0,0,4.76,6.27S114.66,224.3,120.63,222Z" style="opacity:0.2"></path></g></g></g><g id="freepik--Window--inject-94"><g id="freepik--window--inject-94"><polygon points="467.62 189.49 464.47 191.36 346.9 123.16 350.04 121.29 467.62 189.49" style="fill:#fafafa"></polygon><polygon points="350.04 121.29 464.47 187.66 464.47 99.88 350.04 33.53 350.04 121.29" style="fill:#fff"></polygon><polygon points="407.17 63.34 407.17 154.81 401.24 151.38 401.24 59.91 407.17 63.34" style="fill:#f0f0f0"></polygon><polygon points="410.14 61.61 407.17 63.34 407.17 154.81 410.14 153.09 410.14 61.61" style="fill:#e0e0e0"></polygon><path d="M341,126.59l129.45,75V96.46L341,21.41Zm5.94-94.91,117.57,68.2v91.48L346.9,123.16Z" style="fill:#f0f0f0"></path><polygon points="346.9 123.16 350.04 121.29 350.04 33.53 346.9 31.68 346.9 123.16" style="fill:#e0e0e0"></polygon><polygon points="340.96 21.41 344.16 19.58 473.6 94.63 470.41 96.46 340.96 21.41" style="fill:#fafafa"></polygon><polygon points="473.6 94.63 470.41 96.46 470.4 201.63 473.6 199.81 473.6 94.63" style="fill:#e0e0e0"></polygon><polygon points="407.17 66.75 401.25 63.34 401.25 66.76 407.17 70.18 407.17 66.75" style="fill:#e0e0e0"></polygon><polygon points="407.17 70.18 410.13 68.46 407.17 66.75 407.17 70.18" style="opacity:0.15"></polygon></g></g><g id="freepik--Pictures--inject-94"><g id="freepik--pictures--inject-94"><g id="freepik--picture--inject-94"><g id="freepik--frame--inject-94"><polygon points="48.26 145.12 50.03 146.18 86.49 125.12 84.72 124.06 48.26 145.12" style="fill:#fafafa"></polygon><polygon points="84.72 124.06 50.03 144.08 50.03 107.76 84.72 87.75 84.72 124.06" style="fill:#fff"></polygon><path d="M89.85,80.9,46.68,105.83V152l43.17-24.92Zm-3.36,44.22L50,146.17V107.76L86.49,86.71Z" style="fill:#f0f0f0"></path><polygon points="86.49 125.12 84.72 124.06 84.72 87.75 86.49 86.71 86.49 125.12" style="fill:#e0e0e0"></polygon><polygon points="89.85 80.91 88.04 79.87 44.88 104.8 46.68 105.83 89.85 80.91" style="fill:#fafafa"></polygon><polygon points="44.88 104.8 46.68 105.83 46.68 151.98 44.88 150.95 44.88 104.8" style="fill:#e0e0e0"></polygon></g><g id="freepik--land--inject-94"><polygon points="83.36 122.98 51.39 141.44 51.39 132.21 59.38 113.75 64.36 118.36 62.57 126.1 73.61 102.49 83.36 113.75 83.36 122.98" style="fill:#f0f0f0"></polygon><path d="M64.06,104.83a5.22,5.22,0,0,0-2.36,4.1c0,1.51,1,2.12,2.36,1.36a5.2,5.2,0,0,0,2.37-4.09C66.43,104.69,65.37,104.08,64.06,104.83Z" style="fill:#f0f0f0"></path></g></g><g id="freepik--picture--inject-94"><g id="freepik--frame--inject-94"><polygon points="110.13 98.23 111.91 99.29 148.37 78.23 146.59 77.17 110.13 98.23" style="fill:#fafafa"></polygon><polygon points="146.59 77.17 111.91 97.2 111.91 60.87 146.59 40.87 146.59 77.17" style="fill:#fff"></polygon><path d="M151.72,34,108.55,58.94v46.15l43.17-24.92Zm-3.35,44.21L111.9,99.29V60.87l36.46-21Z" style="fill:#f0f0f0"></path><polygon points="148.37 78.23 146.59 77.17 146.59 40.87 148.37 39.82 148.37 78.23" style="fill:#e0e0e0"></polygon><polygon points="151.72 34.02 149.91 32.98 106.75 57.91 108.55 58.94 151.72 34.02" style="fill:#fafafa"></polygon><polygon points="106.75 57.91 108.55 58.94 108.55 105.09 106.75 104.06 106.75 57.91" style="fill:#e0e0e0"></polygon></g><g id="freepik--land--inject-94"><polygon points="145.24 76.09 113.26 94.55 113.26 85.32 121.25 66.86 126.23 71.47 124.44 79.21 135.48 55.6 145.24 66.86 145.24 76.09" style="fill:#f0f0f0"></polygon><path d="M125.93,57.94a5.25,5.25,0,0,0-2.36,4.1c0,1.51,1.06,2.12,2.36,1.37a5.24,5.24,0,0,0,2.37-4.1C128.3,57.8,127.24,57.19,125.93,57.94Z" style="fill:#f0f0f0"></path></g></g></g></g><g id="freepik--speech-bubble--inject-94"><g id="freepik--speech-bubble--inject-94"><g id="freepik--speech-bubble--inject-94"><path d="M199.6,87.25a.75.75,0,0,0-.37-.09h-.83V101l8.16-8.76a.73.73,0,0,0-.18-1.12Z" style="fill:#7367F0"></path><path d="M199.6,87.25a.75.75,0,0,0-.37-.09h-.83V101l8.16-8.76a.73.73,0,0,0-.18-1.12Z" style="fill:#fff;opacity:0.30000000000000004"></path><path d="M198.4,101l8.16-8.76A.73.73,0,0,0,206,91H198.4l-1.9,1.6Z" style="fill:#7367F0"></path><path d="M198.4,82.82a7.08,7.08,0,0,0-3.2-5.55h0a7.1,7.1,0,0,0-6.41,0L142.05,104.4a7.09,7.09,0,0,0-3.21,5.55v24.74a7.11,7.11,0,0,0,3.21,5.56h0a7.1,7.1,0,0,0,6.41,0l47-27.35c2.88-1.64,2.9-3.29,2.9-5.33Z" style="fill:#7367F0"></path><path d="M138.84,134.69a7.11,7.11,0,0,0,3.21,5.56h0a7.12,7.12,0,0,0,5.86.27c-1.51.57-2.65-.29-2.65-2.12V113.65a6.56,6.56,0,0,1,.93-3.16l-6.41-3.7a6.58,6.58,0,0,0-.94,3.16Z" style="opacity:0.2"></path><path d="M198.3,81.91c-.38-1.36-1.62-1.8-3.1-.94L148.46,108.1a6.4,6.4,0,0,0-2.26,2.4l-6.41-3.7a6.52,6.52,0,0,1,2.26-2.39l46.73-27.14a7.18,7.18,0,0,1,6.42,0h0A7.1,7.1,0,0,1,198.3,81.91Z" style="fill:#fff;opacity:0.30000000000000004"></path></g><path d="M155.22,112.74a3.36,3.36,0,0,1,1.46-.49,2,2,0,0,1,1.15.25,2,2,0,0,1,.76.78,2.51,2.51,0,0,1,.28,1.12.71.71,0,0,1-.08.34.44.44,0,0,1-.18.23l-1.63.94a.36.36,0,0,1-.27.08.43.43,0,0,1-.22-.1.66.66,0,0,1-.12-.12.57.57,0,0,0-.23-.15.86.86,0,0,0-.37,0,1.67,1.67,0,0,0-.55.21,3.48,3.48,0,0,0-.84.68,1.92,1.92,0,0,0-.27.46,1.41,1.41,0,0,0-.11.54.57.57,0,0,0,.12.41.55.55,0,0,0,.4.12,3,3,0,0,0,.74-.11l1.14-.3a3.87,3.87,0,0,1,1.19-.15,1.4,1.4,0,0,1,.85.32,1.74,1.74,0,0,1,.51.86,4.91,4.91,0,0,1,.17,1.46,6.43,6.43,0,0,1-.28,1.9,8.27,8.27,0,0,1-2,3.31,7.55,7.55,0,0,1-1.54,1.17,3.69,3.69,0,0,1-1.54.55,2.21,2.21,0,0,1-1.2-.22,1.88,1.88,0,0,1-.78-.82,2.79,2.79,0,0,1-.3-1.26.84.84,0,0,1,.08-.34.49.49,0,0,1,.18-.23l1.63-.94a.43.43,0,0,1,.27-.09.45.45,0,0,1,.2.09l.15.16a.78.78,0,0,0,.26.2.83.83,0,0,0,.43.07,1.36,1.36,0,0,0,.62-.23,4.64,4.64,0,0,0,1.1-.85,1.49,1.49,0,0,0,.44-1,.42.42,0,0,0-.16-.39.94.94,0,0,0-.48-.07,5.11,5.11,0,0,0-.83.16l-1.18.3a1.77,1.77,0,0,1-1.87-.32,3.37,3.37,0,0,1-.59-2.29,6.52,6.52,0,0,1,.24-1.71,7.68,7.68,0,0,1,.7-1.72,8.11,8.11,0,0,1,1.11-1.55A6.06,6.06,0,0,1,155.22,112.74Z" style="fill:#fff"></path><path d="M167,113.81c0,.19,0,.43,0,.73s0,.55,0,.75a8.14,8.14,0,0,1-.28,1.87,8.26,8.26,0,0,1-.68,1.8,7.61,7.61,0,0,1-1.05,1.56,5.61,5.61,0,0,1-1.37,1.13,3,3,0,0,1-1.37.45,1.53,1.53,0,0,1-1-.34,2.32,2.32,0,0,1-.69-1,5.07,5.07,0,0,1-.27-1.56c0-.19,0-.43,0-.73s0-.55,0-.75a8.17,8.17,0,0,1,.26-1.87,9.3,9.3,0,0,1,.69-1.8,8.48,8.48,0,0,1,1.06-1.57,5.27,5.27,0,0,1,1.37-1.14,2.8,2.8,0,0,1,1.37-.44,1.69,1.69,0,0,1,1.06.35,2.18,2.18,0,0,1,.68,1A5.07,5.07,0,0,1,167,113.81Zm-4.52,4a1.23,1.23,0,0,0,.34.94c.2.16.47.14.8,0a2.06,2.06,0,0,0,.8-.87,3.2,3.2,0,0,0,.34-1.34q0-.3,0-.66a6,6,0,0,0,0-.64,1.23,1.23,0,0,0-.34-.94c-.2-.16-.47-.14-.8.05a2,2,0,0,0-.8.88,3.15,3.15,0,0,0-.34,1.33q0,.3,0,.66A5.85,5.85,0,0,0,162.49,117.8Z" style="fill:#fff"></path><path d="M173,106.11a.19.19,0,0,1,.24,0,.44.44,0,0,1,.1.31v1.93a1.07,1.07,0,0,1-.1.42.72.72,0,0,1-.24.29l-1.13.65a2.56,2.56,0,0,0-1.14,2.42v4.7a.92.92,0,0,1-.1.42.6.6,0,0,1-.24.29l-1.56.91a.19.19,0,0,1-.24,0,.46.46,0,0,1-.1-.31v-8.91a1.07,1.07,0,0,1,.1-.42.72.72,0,0,1,.24-.29l1.44-.83a.18.18,0,0,1,.24,0,.41.41,0,0,1,.1.3v.44a6,6,0,0,1,.68-1.08,3.37,3.37,0,0,1,1-.83Z" style="fill:#fff"></path><path d="M179,102.64a.19.19,0,0,1,.24,0,.44.44,0,0,1,.1.31v1.93a1.07,1.07,0,0,1-.1.42.72.72,0,0,1-.24.29l-1.13.65a2.56,2.56,0,0,0-1.14,2.42v4.7a.92.92,0,0,1-.1.42.6.6,0,0,1-.24.29l-1.56.9a.18.18,0,0,1-.24,0,.46.46,0,0,1-.1-.31v-8.91a1.07,1.07,0,0,1,.1-.42.72.72,0,0,1,.24-.29l1.44-.83a.18.18,0,0,1,.24,0,.41.41,0,0,1,.1.3V105a6,6,0,0,1,.68-1.08,3.37,3.37,0,0,1,1-.83Z" style="fill:#fff"></path><path d="M183.87,113a2.34,2.34,0,0,1-.12.38.64.64,0,0,1-.24.29l-1.63.94a.17.17,0,0,1-.21,0,.34.34,0,0,1-.08-.27.61.61,0,0,1,0-.14l.94-4L180,102.64a.41.41,0,0,1,0-.12.85.85,0,0,1,.09-.38.63.63,0,0,1,.21-.26l1.62-.94c.11,0,.18,0,.24,0a.7.7,0,0,1,.13.24l1.37,4.17,1.37-5.76c0-.12.07-.24.12-.38a.64.64,0,0,1,.24-.29l1.64-.94a.15.15,0,0,1,.21,0,.37.37,0,0,1,.09.27c0,.06,0,.1,0,.15Z" style="fill:#fff"></path><path d="M190.86,101.11a.92.92,0,0,1-.1.42.58.58,0,0,1-.23.29l-1.57.9a.17.17,0,0,1-.23,0,.41.41,0,0,1-.1-.31V94.16a.92.92,0,0,1,.1-.42.58.58,0,0,1,.23-.29l1.57-.9a.17.17,0,0,1,.23,0,.38.38,0,0,1,.1.3Zm0,4.11a.92.92,0,0,1-.1.42.58.58,0,0,1-.23.29l-1.57.91a.18.18,0,0,1-.23,0,.4.4,0,0,1-.1-.31v-1.93a.92.92,0,0,1,.1-.42.58.58,0,0,1,.23-.29l1.57-.9a.17.17,0,0,1,.23,0,.38.38,0,0,1,.1.3Z" style="fill:#fff"></path></g></g><g id="freepik--Character--inject-94"><g id="freepik--character--inject-94"><path id="freepik--shadow--inject-94" d="M213.78,434.8a21.75,21.75,0,0,0,5.75-3.14,34.3,34.3,0,0,0,6.51-6.78,60.6,60.6,0,0,1,6.05-7.06c3.89-3.77,8.34-7.1,13.53-8.84,7.14-2.4,14.78-1.49,22.1-.82,8.37.77,16.63,2.11,25,2.6,5.05.29,10.54.33,14.64-2.64,1.51-1.1,2.83-2.79,2.66-4.66s-2-3.75-3.59-5.15c-5.11-4.37-11.62-7.3-17.75-9.93-11-4.72-22.33-9-34.15-11s-24.23-1.66-35.44,2.58c-6.66,2.52-12.78,9.8-16.45,15.75a51.93,51.93,0,0,0-6.77,17.07,43,43,0,0,0-.82,9.26c.09,3.51.62,8,3.27,10.64a11,11,0,0,0,4.71,2.79A17.94,17.94,0,0,0,213.78,434.8Z" style="opacity:0.2"></path><g id="freepik--Bottom--inject-94"><path d="M279,370c-.18-6.07.86-55.36.86-55.36l-23.87,15c3.8,27,6.91,39.78,7.31,44.47h0a6,6,0,0,1,.17,1c.08,5.36,6.46,8.18,11.45,11.7a92.86,92.86,0,0,0,13.49,8.18c3.61,1.69,10.92,1.77,11.8-.44-6.07-4.32-13.1-9-18-14C280,378.06,279.17,375.59,279,370Z" style="fill:#ffa8a7"></path><path d="M310.56,400.08c.31,0,.81,3.23-.85,4.63-1.92,1.61-7.58,4.28-15.1,3.43s-11.62-3-14.65-5.39-7.29-5.7-10.69-6.38c-3.17-.63-6.61-2-7.63-2.87s-.93-5.06-.93-5.06Z" style="fill:#263238"></path><path d="M263.11,372.59s-.53,0-.71.9c-.22,1.15-.43,4.46-.91,6.33-.66,2.61-1.06,7.93-.62,10s5.6,3.54,8.9,4.69a42.61,42.61,0,0,1,10.73,6.3c3.56,2.74,11,5.44,15.92,5.46,7.47,0,12.29-1.95,13.76-4.52,1.81-3.19.34-5-8.29-8.71-1.64-.7-7.38-3.86-9.34-5-5.31-3.1-9.66-7.29-12.14-12.85a3.15,3.15,0,0,0-1.26-1.7,2.86,2.86,0,0,0-1.67-.13,21.75,21.75,0,0,0-5,1.08c-1.14.54-2.77,1.17-2.73,2.57a4.46,4.46,0,0,0,.34,1.43c.1.28.19.66-.07.84s-.58,0-.81-.21a20.76,20.76,0,0,1-2.34-2.62,8.56,8.56,0,0,0-1.38-1.31,14.5,14.5,0,0,1-1.48-.89A2.78,2.78,0,0,1,263.11,372.59Z" style="fill:#37474f"></path><path d="M303.28,393.69c-10.81.82-14.15,7.22-14.57,11.16a26.74,26.74,0,0,0,7.71,1.46c7.47,0,12.6-1.95,14.07-4.52C312.2,398.78,311,396.39,303.28,393.69Z" style="fill:#fafafa"></path><path d="M287.06,394a.53.53,0,0,1-.34-.11.49.49,0,0,1-.08-.71,13,13,0,0,1,9.74-3.77.5.5,0,1,1-.1,1,12.14,12.14,0,0,0-8.82,3.4A.5.5,0,0,1,287.06,394Z" style="fill:#f0f0f0"></path><path d="M282.37,391.42a.53.53,0,0,1-.34-.11.48.48,0,0,1-.08-.7,13,13,0,0,1,9.74-3.78.5.5,0,1,1-.1,1,12.14,12.14,0,0,0-8.82,3.4A.5.5,0,0,1,282.37,391.42Z" style="fill:#f0f0f0"></path><path d="M278,388.51a.5.5,0,0,1-.42-.81,13,13,0,0,1,9.74-3.78.52.52,0,0,1,.48.55.51.51,0,0,1-.58.45,12.1,12.1,0,0,0-8.82,3.41A.52.52,0,0,1,278,388.51Z" style="fill:#f0f0f0"></path><path d="M273.75,385.6a.58.58,0,0,1-.33-.1.49.49,0,0,1-.09-.71c2-2.51,6.71-4.2,10.64-3.83a.51.51,0,0,1,.48.55.53.53,0,0,1-.58.45c-3.54-.33-7.89,1.22-9.71,3.45A.5.5,0,0,1,273.75,385.6Z" style="fill:#f0f0f0"></path><path d="M228.25,343.75l-22.86-2.59c-1.2,14.59-.48,31-1.52,44.67-.2,2.58-2.18,20-1.72,25.35.69,8.1,10.71,8,11.74,3.27s3.52-25.25,3.77-27.35c.84-8.76,5.2-23,9.12-38.52C227,347.81,228.06,344.49,228.25,343.75Z" style="fill:#ffa8a7"></path><path d="M217.27,418.11c-.28,4.69-1.05,7.8-2.8,10.55s-5,3.62-8.38,2.81-7.62-3-8.57-7-.77-6.82,0-11.17Z" style="fill:#263238"></path><path d="M204,384.15c-1.38.11-1.78,6.4-2.58,12.71-.85,6.76-3,9.55-3.73,15.09-.86,6.33-.52,9.16,1.81,13s10.58,7.58,14.64,2.1c3.32-4.47,3.46-9.43,3.15-15.75a134.48,134.48,0,0,1,.45-16c.26-4.74,1.37-9.52.17-10-.09.69-.18,1.58-.28,2.26-.07.52-.21,3.09-1,3.12a9.72,9.72,0,0,1,0-1.79,2,2,0,0,0-.37-1.53,2.69,2.69,0,0,0-1.53-.65c-1.35-.25-4.22-.37-5.6-.49a20.15,20.15,0,0,0-2.06-.08,5.67,5.67,0,0,0-1.74.24,1.18,1.18,0,0,0-.75.64,1.94,1.94,0,0,0-.07.72,5.15,5.15,0,0,1-.17,1.3c-.05.19-.19.42-.38.37s-.23-.22-.23-.38c0-.76.1-1.32.14-2.21,0-.41.08-1,.09-1.38S204,384.56,204,384.15Z" style="fill:#37474f"></path><path d="M197.3,415.62c-.24,3.93,0,6.62,1.82,9.62,2.33,3.83,11.24,7.59,15.31,2.11,2-2.72,2.56-6,2.84-9.24C214.84,413.88,201.14,412,197.3,415.62Z" style="fill:#fafafa"></path><path d="M213.74,411.23a.55.55,0,0,1-.17-.05A21,21,0,0,0,201.71,410a.53.53,0,0,1-.62-.37.49.49,0,0,1,.39-.58A21.83,21.83,0,0,1,214,410.3a.48.48,0,0,1,.24.65A.51.51,0,0,1,213.74,411.23Z" style="fill:#f0f0f0"></path><path d="M202,405.3a.5.5,0,0,1-.43-.33.49.49,0,0,1,.32-.62c6.16-2,12.26,1,12.52,1.13a.47.47,0,0,1,.21.65.53.53,0,0,1-.69.21c-.06,0-6-2.92-11.71-1.06A.57.57,0,0,1,202,405.3Z" style="fill:#f0f0f0"></path><path d="M202.39,400.85a.52.52,0,0,1-.43-.32.49.49,0,0,1,.31-.62A16.5,16.5,0,0,1,215,401a.46.46,0,0,1,.17.66.52.52,0,0,1-.7.17,15.7,15.7,0,0,0-11.89-1A.46.46,0,0,1,202.39,400.85Z" style="fill:#f0f0f0"></path><path d="M202.81,395.85a.5.5,0,0,1-.42-.31.48.48,0,0,1,.29-.63c6.36-2.26,12.6,1.08,12.87,1.23a.47.47,0,0,1,.18.66.51.51,0,0,1-.69.18c-.06,0-6.1-3.26-12-1.16A.45.45,0,0,1,202.81,395.85Z" style="fill:#ebebeb"></path><path d="M222.59,180.93a11.09,11.09,0,0,1-2.2,5.33c-6.06,8.56-10.79,16.78-11.27,32.31-1.21,38.4-.27,78.18-.27,78.18-.26,3.39-3.11,9.39-4.4,26.94-1.14,15.35-.74,36.39-.74,36.39s11.07,5.24,20.58,1.55c3.79-12.48,11.66-44.88,15.79-61.59,3.75-15.17,6.25-37.5,6.25-37.5l6.58,30.94a90.11,90.11,0,0,0,.26,20c1.21,10.28,5.89,39.73,5.89,39.73s12.17,3.61,20.35-2.16c0,0,2-51.32,2.13-63.75.17-23.14,0-70.49-7.05-100a64.75,64.75,0,0,1-.45-6.88C266,187.12,233.34,188.15,222.59,180.93Z" style="fill:#37474f"></path><path d="M235.34,191.81a.45.45,0,0,0-.54.31c-.44,1.79-.78,3.4-1.11,4.95-1.18,5.61-2,9.67-6.25,14a14.66,14.66,0,0,1-10.6,4.24c1.82-11.49,5.67-20.66,11.81-28.23a.42.42,0,0,0-.08-.6.47.47,0,0,0-.63.08c-6.31,7.78-10.24,17.22-12.06,29.06a.17.17,0,0,1,0,.05v0A107.69,107.69,0,0,0,214.72,230c-.4,21.6-1,54.24-1.32,62.81-.17,4.59-1.19,8.57-2.49,13.62-1.11,4.34-2.38,9.27-3.51,16C205,337,206.21,361,206.22,361.24a.44.44,0,0,0,.45.4h0a.44.44,0,0,0,.43-.45c0-.23-1.25-24.12,1.17-38.62,1.12-6.71,2.38-11.62,3.49-15.95,1.31-5.09,2.34-9.11,2.52-13.79.32-8.58.92-41.22,1.31-62.82a108.39,108.39,0,0,1,1.09-13.83h.47a15.34,15.34,0,0,0,10.93-4.52c4.38-4.53,5.26-8.68,6.47-14.43.33-1.55.67-3.15,1.1-4.92A.42.42,0,0,0,235.34,191.81Z" style="fill:#455a64"></path><path d="M203.64,355.35c3.26,3.08,16.9,4.72,21.89,2l-2.09,8.23s-3.24,2-10.49,1.36c-8.41-.76-9.31-3.46-9.31-3.46Z" style="fill:#455a64"></path><path d="M258.36,348.74c4.32,1.44,16.53.55,21.23-2.4l-.2,6.87s-2.64,2.57-9.88,3.35-10.18-1.21-10.18-1.21Z" style="fill:#455a64"></path><path d="M246.33,262.54l4.73-37.92a23.71,23.71,0,0,0,19-9.23s.31,9.48-15.15,13.84l-5.66,35,3.66,29.3Z" style="fill:#263238"></path></g><g id="freepik--Top--inject-94"><path d="M280.82,129.14c-3.89-5.54-7.19-19.22-7.2-35V82.3a27.18,27.18,0,0,0-27.18-27.19h0A27.19,27.19,0,0,0,219.25,82.3v89.13h54.37V117.31C275.2,121.51,277.69,126.25,280.82,129.14Z" style="fill:#455a64"></path><path d="M300.2,180.28c.89-8.91-9.83-27.82-21.25-48.14-4.74-8.44-7.58-12.95-19.27-14.94l-6.11,31.51s28.06,30.85,28.66,30.85S300.2,180.28,300.2,180.28Z" style="fill:#f28f8f"></path><path d="M259.27,116.16c7.4,1.76,10.87,3.2,14.35,7.23s13.45,23.12,16.44,28.49,6.44,13.72,6.44,13.72l-18.61,6.57-13.8-24.49Z" style="fill:#7367F0"></path><path d="M259.27,116.16c7.4,1.76,10.87,3.2,14.35,7.23s13.45,23.12,16.44,28.49,6.44,13.72,6.44,13.72l-18.61,6.57-13.8-24.49Z" style="opacity:0.30000000000000004"></path><path d="M275.47,169c2.08-2.33,13.42-6.95,20.38-4.94a3.85,3.85,0,0,1,2.88,3.51c.23,1.43,1.75,3.17,1.52,4.22s.52,2.94.74,4.3.29,3.22-.79,4.21c-2.82-1.72-13.37-4.66-23.29-3.38Z" style="fill:#37474f"></path><path d="M284.58,207.7c-.79-4.82-22.12-9.84-33.53-9.27V141h28Z" style="fill:#7367F0"></path><path d="M284.58,207.7c-.79-4.82-22.12-9.84-33.53-9.27V141h28Z" style="opacity:0.5"></path><path d="M240.11,114.11l-18.28,4.75c-3,1-13,8.51-9.13,25.44,1.29,5.59,3.05,13.45,4.63,21.3,1.21,6-3.24,17.54-6.84,35.93,0,0,14.75,11.82,44.06,8.48,22.36-2.54,24.78-11,24.78-11-.62-21-2.46-29.07-2.42-37.05,0,0,3.27-4,3.41-11.14.14-7.48-1.81-11.5-8.46-20a142.57,142.57,0,0,0-12.18-13.66Z" style="fill:#fafafa"></path><path d="M271.9,140.19c5.18,11.87,1.68,79.59,2.15,74.51,0,0,9.63-3.76,10.53-7,0-12.19-2.24-36.68-2.37-45.06-.16-9.63-.07-16.6-3.15-22.51s-14.76-20.42-19.38-22.93C264.45,121.37,269.94,133.08,271.9,140.19Z" style="fill:#7367F0"></path><path d="M271.9,140.19c5.18,11.87,1.68,79.59,2.15,74.51,0,0,9.63-3.76,10.53-7,0-12.19-2.24-36.68-2.37-45.06-.16-9.63-.07-16.6-3.15-22.51s-14.76-20.42-19.38-22.93C264.45,121.37,269.94,133.08,271.9,140.19Z" style="opacity:0.2"></path><path d="M253.24,118.09c3.25,2.25,17.66,12.12,20.55,31.76,0-8.66-3.23-19.26-6.3-24.29-3.74-6.13-8.72-11.85-14.29-13.52Z" style="fill:#37474f"></path><path d="M233.53,114.31s-.16.26,0,3.94,5.92,31.51,6,44.85a435.87,435.87,0,0,1-3.2,53.67s-23.26.69-31.12-10a158.93,158.93,0,0,0,7.38-28.54c2.63-16.24,7.48-59.36,7.48-59.36Z" style="fill:#7367F0"></path><path d="M233.53,114.31s-.16.26,0,3.94,5.92,31.51,6,44.85a435.87,435.87,0,0,1-3.2,53.67s-23.26.69-31.12-10a158.93,158.93,0,0,0,7.38-28.54c2.63-16.24,7.48-59.36,7.48-59.36Z" style="opacity:0.2"></path><path d="M268.48,71.28c1.36,3,5.68,7.21,3.68,23.82-1.52,12.66-5.25,15.39-9.45,16.9a18.27,18.27,0,0,1-9.51,0l0,6s7.35,7.46,4.44,22.1c-24.21-11-24.14-23.53-24.14-23.53l-.11-19.94c-.83,1.28-4.76,2.93-7.7-1.08-3.46-4.72-2.5-10.21.75-12.15s7.09.09,8.44,3.9c3.4,1.54,6.23-1.54,6.38-14.94C249.22,68.55,259.84,66.31,268.48,71.28Z" style="fill:#ffa8a7"></path><path d="M233.49,107.7c-1.63-.12-2.09,3.25-4.32,5.67A31.39,31.39,0,0,1,225,117.2c1.65,12.29,7.42,25.51,14.16,39l-5.64-44.42Z" style="fill:#37474f"></path><path d="M227.69,93.93a1.82,1.82,0,1,0,2.1-1.48A1.82,1.82,0,0,0,227.69,93.93Z" style="fill:#7367F0"></path><polygon points="258.12 84.53 257.68 97.89 264.69 96.7 258.12 84.53" style="fill:#f28f8f"></polygon><path d="M253.2,112c-10.22-3.22-16.42-7.13-17.39-11.5,0,0-.05,4.38,2.86,7,4.09,3.63,14.53,6.8,14.53,6.8Z" style="fill:#f28f8f"></path><path d="M249.65,90.14a2.23,2.23,0,0,0,2.85,1.24,2.1,2.1,0,0,0,1.24-2.76c-.44-1.11-1.49-1.12-2.62-.7S249.2,89,249.65,90.14Z" style="fill:#263238"></path><path d="M268.35,90.14a2.23,2.23,0,0,1-2.85,1.24,2.1,2.1,0,0,1-1.24-2.76c.44-1.11,1.49-1.12,2.62-.7S268.8,89,268.35,90.14Z" style="fill:#263238"></path><path d="M257.69,102.55a6.84,6.84,0,0,0-2.64-1.32,4.67,4.67,0,0,0-1.58-.08,3,3,0,0,0-1.61.5c-.07,0-.12.26,0,.29a2.36,2.36,0,0,0,.75,0,6.77,6.77,0,0,1,.78,0,8.77,8.77,0,0,1,1.44.3,6.4,6.4,0,0,1,2.6,1.34c.25.23,1,1.15,1.18.4C258.76,103.43,258.1,102.89,257.69,102.55Z" style="fill:#b16668"></path><path d="M266.13,63.55C276.09,66,276.88,78.74,276,84c-1.43.67-5.8.92-8.95.58a33.48,33.48,0,0,0-2.9-9.42,60.8,60.8,0,0,1,.45,9.64,18.32,18.32,0,0,1-8.42-.1s-.18-5.83.17-13.29c-1.93,4.85-2.4,13.17-2.4,13.17s-5.71.19-9.4-1.3a56,56,0,0,1,1.05-9.66c-1.93,3.29-2.8,7.17-3.66,11s-5.54,6.11-7,2.86c-.28-3.36-1-11.82,2.55-17.54S254.87,60.76,266.13,63.55Z" style="fill:#455a64"></path><path d="M266,81.67l4.73,2.23a2.51,2.51,0,0,1-3.4,1.31A2.74,2.74,0,0,1,266,81.67Z" style="fill:#263238"></path><path d="M252,81.47l-4.4,3a2.55,2.55,0,0,0,3.6.8A2.79,2.79,0,0,0,252,81.47Z" style="fill:#263238"></path><path d="M275.93,165.6c.65,5.36,14.32,3.3,19.15,6.87,6.08,4.49,7.38,9.32.65,12.61s-12.1,2.23-17.39.2c-6.21-2.38-9.4-2.27-9.4-2.27Z" style="fill:#ffa8a7"></path><g id="freepik--Arm--inject-94"><path d="M265.36,182.26c-2.16-1.4-4.13-5.47-4.52-8.18-.55-3.86.18-4.82.38-8.54a12,12,0,0,1,1-5.07s.26-2.05-1.42-7.48c-.62-2-.33-3.57,1.18-3.87-.49-2.73.77-3.58,2.05-3.4-.43-2.14-.62-4.06,1.51-4.76.22-.08.69.61,1.22,2.15.16-1.39,1.84-2.72,2.43-1.66A115.38,115.38,0,0,1,274,152.08c1.61,4.23,2.25,6,2,13.52-.17,4.66-.06,6.45-1,11.09-.38,2-.46,2.55-2.55,4.93C270.67,183.63,266.42,183.12,265.36,182.26Z" style="fill:#ffa8a7"></path><path d="M269.63,168.1a11.91,11.91,0,0,0-.8-5.1s-.18-2.07,1.7-7.43c.69-2,.46-3.56-1-3.91.59-2.71-.64-3.61-1.92-3.48.5-2.11.75-4-1.35-4.81-.21-.08-.71.59-1.29,2.11a2.69,2.69,0,0,0-1-1.78,8.68,8.68,0,0,0,.38,2.59c-1.29-.12-2.5.8-1.87,3.51-1.49.37-1.7,2-1,3.92,2,5.33,1.81,7.4,1.81,7.4a12.06,12.06,0,0,0-.72,5.11c0,3.72-1.22,6-.47,9.84a8.41,8.41,0,0,0,4.38,5.8c.47.27,1.7-1.06,2.18-.76a7.45,7.45,0,0,0,1.71-3.88C270.9,173.8,269.7,171.82,269.63,168.1Z" style="fill:#f28f8f"></path></g><g id="freepik--arm--inject-94"><path d="M265.44,184.29c2.63-1.27,3.5-3.29,4.18-5.95,1.06-4.12-.77-6.57-.83-10.29a11.93,11.93,0,0,0-.8-5.1s-.19-2.06,1.69-7.42c.7-2,.46-3.56-1-3.91.59-2.72-.64-3.61-1.93-3.48.51-2.12.76-4-1.34-4.81-.21-.08-.71.58-1.29,2.11-.11-1.4-1.74-2.79-2.37-1.75a111.34,111.34,0,0,0-5.16,10.45c-1.77,4.16-1.89,6-1.89,13.46,0,2-.19,5.37-4.1,6.55s-27.91.77-27.91.77-.25-14.27-.16-23.79c4.18-13.64,1.51-27.57-1.71-32.31-10.33,2.51-16.19,6.71-17.15,15.73s-1.39,33.12-.55,44.85c.87,12.06,3.93,15.27,12.68,15C230.7,193.91,249.77,191.82,265.44,184.29Z" style="fill:#ffa8a7"></path><path d="M267.49,153a43.75,43.75,0,0,0-2.54,6.89c-.25,1.33-.66,4.19-.66,4.19a17.53,17.53,0,0,1,.17-4.45C264.87,156.73,267.49,153,267.49,153Z" style="fill:#f28f8f"></path><path d="M266.39,148.29c-1,2.26-3,5.41-3.45,7.08a44.84,44.84,0,0,0-1.19,7.73,19.44,19.44,0,0,1,.7-8C263.28,152.5,264.65,151.18,266.39,148.29Z" style="fill:#f28f8f"></path><path d="M264.09,145.44c-1.44,3.06-3.73,7.35-4.22,8.62s-1.18,7.59-1.18,7.59a35.38,35.38,0,0,1,.25-6.68C259.42,152.66,264.09,145.44,264.09,145.44Z" style="fill:#f28f8f"></path><path d="M221.08,118.52c-2.93.74-9.77,2.21-14,6.72s-4.2,9.19-4.63,18.13-.48,26.85-.3,29.71c0,0,3.16,1.3,10.3,1.08S222.87,172,222.87,172s.13-10.7.39-15.07,2.43-14.12,2-21.74S224.4,122.67,221.08,118.52Z" style="fill:#7367F0"></path><path d="M221.08,118.52c-2.93.74-9.77,2.21-14,6.72s-4.2,9.19-4.63,18.13-.48,26.85-.3,29.71c0,0,3.16,1.3,10.3,1.08S222.87,172,222.87,172s.13-10.7.39-15.07,2.43-14.12,2-21.74S224.4,122.67,221.08,118.52Z" style="opacity:0.30000000000000004"></path><path d="M222.91,169.49c-.69,1.56-4.1,2.68-10.21,2.86-3.65.11-9.95-1.17-10.62-2.27v-1.71s-1.76.32-1.33,3.75-1.3,5.08-.61,6.81.35,4.62,1.48,5.95a4.47,4.47,0,0,0,2.47,1.53s13.46-1.88,19.61-11.48c.52-.94,0-2.06,0-3.1s.53-2.93-.77-3.36Z" style="fill:#37474f"></path></g></g></g></g></svg>